<svg width="150" height="150" viewBox="0 0 150 150" fill="none" xmlns="http://www.w3.org/2000/svg">
<g clip-path="url(#clip0_22_296)">
<path d="M75.0921 149.934C115.852 149.934 148.895 116.891 148.895 76.1307C148.895 35.3705 115.852 2.32776 75.0921 2.32776C34.3318 2.32776 1.28912 35.3705 1.28912 76.1307C1.28912 116.891 34.3318 149.934 75.0921 149.934Z" fill="#3C3C3B"/>
<path d="M69.9209 91.298H46.3488V117.139C46.3478 117.426 46.4309 117.708 46.588 117.949C46.7451 118.19 46.9692 118.379 47.2327 118.494C48.2375 118.907 49.3019 119.156 50.3855 119.231V120.174H28.154V119.231C29.2374 119.155 30.3017 118.906 31.3068 118.494C31.5689 118.378 31.7915 118.188 31.9472 117.947C32.1029 117.707 32.185 117.426 32.1834 117.139V82.4731L38.813 82.5321H111.577H118.207V117.286C118.207 117.575 118.293 117.858 118.452 118.099C118.612 118.34 118.839 118.529 119.106 118.642C120.104 119.049 121.161 119.298 122.236 119.378V120.402H99.9681V119.445C101.046 119.365 102.105 119.116 103.106 118.708C103.371 118.594 103.597 118.405 103.755 118.164C103.914 117.923 103.998 117.641 103.997 117.353V91.298H83.5928V107.607C83.5926 107.892 83.6753 108.172 83.8309 108.411C83.9866 108.65 84.2084 108.839 84.4694 108.955C85.4733 109.37 86.5382 109.619 87.6221 109.692V110.634H65.8842V109.721C66.9575 109.641 68.0116 109.393 69.0075 108.984C69.2754 108.874 69.5049 108.688 69.6674 108.448C69.8298 108.208 69.918 107.926 69.9209 107.636V91.298Z" fill="#F6F6F6"/>
<path opacity="0.77" d="M45.8258 25.4579H48.1093C48.1721 26.6971 48.1721 27.9387 48.1093 29.1779C47.8646 31.5828 48.4664 33.9976 49.8109 36.0065C50.6481 37.3862 51.4056 38.8127 52.0798 40.2789C52.3874 41.0356 52.6482 41.8105 52.8606 42.5993H63.91V38.6878C63.91 35.5571 64.8087 33.6345 67.3133 31.4688L68.3004 32.3675L68.3888 32.2865C68.1088 30.8132 68.9412 29.7377 69.862 28.6549C71.5366 26.6169 73.167 24.5445 74.7532 22.4377C75.046 22.0362 75.2126 21.5567 75.232 21.0602C75.2836 19.226 75.232 17.3771 75.232 15.5429V14.7031H77.4419C77.4419 14.9462 77.4935 15.1967 77.4935 15.4398C77.4935 17.3476 77.4935 19.2628 77.4935 21.1781C77.5047 21.5793 77.6384 21.9674 77.8765 22.2904C79.7402 24.7139 81.6186 27.1153 83.5486 29.4946C83.8292 29.7842 84.0412 30.1331 84.1687 30.5157C84.2962 30.8982 84.336 31.3045 84.2852 31.7045C84.2656 31.9669 84.2656 32.2304 84.2852 32.4927L85.3902 31.4909C86.3609 32.2046 87.1642 33.1213 87.7444 34.1773C88.3245 35.2332 88.6674 36.4029 88.7492 37.605C88.8229 39.0046 88.7492 40.4115 88.786 41.8185V42.6361H100.012C100.012 40.4262 101.559 38.813 102.414 36.9272C103.062 35.5129 104.13 34.2165 104.491 32.7506C104.852 31.2847 104.587 29.6199 104.587 28.0435C104.587 27.2037 104.587 26.364 104.587 25.48H106.797C106.797 25.7084 106.841 25.9146 106.841 26.1282C106.896 27.0212 106.896 27.9167 106.841 28.8096C106.552 31.4569 107.215 34.1206 108.712 36.3232C109.625 37.7965 110.347 39.3287 111.113 40.8535C111.286 41.1966 111.379 41.5743 111.386 41.9584C111.386 54.8446 111.386 67.7257 111.386 80.602C111.386 81.2797 111.18 81.4418 110.487 81.4418C87.7351 81.4418 64.9782 81.4418 42.2163 81.4418C41.4797 81.4418 41.2366 81.2871 41.2366 80.5358C41.2366 67.7037 41.2366 54.8642 41.2734 42.0321C41.2781 41.6019 41.3815 41.1786 41.5754 40.7946C42.8572 38.2974 44.1831 35.8149 45.4722 33.3178C45.6668 32.9336 45.7725 32.5107 45.7816 32.0802C45.8405 29.8924 45.8258 27.712 45.8258 25.4579ZM100.012 62.0537H88.8597V79.2172H100.012V62.0537ZM63.8511 79.2172V62.0684H52.6838V79.2172H63.8511ZM85.3902 34.8426C84.6755 35.9065 84.3029 37.1632 84.3221 38.4447V79.1509C84.7146 79.1283 85.1081 79.1283 85.5007 79.1509C86.2373 79.2467 86.4362 78.9667 86.4288 78.2669C86.4288 74.3702 86.4288 70.4734 86.4288 66.5766C86.4288 57.246 86.4288 47.9153 86.4288 38.5847C86.4832 37.2582 86.1171 35.9485 85.3828 34.8426H85.3902ZM68.3372 79.1067V38.5405C68.3631 37.2328 67.9906 35.9482 67.2691 34.8573C66.5436 35.9667 66.183 37.275 66.2378 38.5994C66.2378 51.8146 66.2378 65.0297 66.2378 78.2449V79.1361L68.3372 79.1067ZM70.7681 66.3998V79.1509C71.1606 79.1286 71.5541 79.1286 71.9467 79.1509C72.6833 79.2393 72.8675 78.9815 72.8454 78.3111C72.7963 76.8379 72.7963 75.3376 72.8454 73.8103C72.8697 73.2399 73.0355 72.6846 73.328 72.1943C73.6205 71.704 74.0305 71.2942 74.5208 71.0019C75.0112 70.7096 75.5666 70.5439 76.137 70.5198C76.7074 70.4957 77.2749 70.6139 77.7882 70.8638C78.421 71.1226 78.9561 71.5745 79.3172 72.1551C79.6783 72.7358 79.8469 73.4155 79.7992 74.0976C79.7992 75.5709 79.7992 77.0441 79.7992 78.5174C79.7992 78.7237 79.9907 79.0846 80.1306 79.0993C80.6998 79.1326 81.2704 79.1326 81.8396 79.0993V66.3556L70.7681 66.3998ZM52.6396 44.8534V55.5345H63.8437V44.8534H52.6396ZM100.012 55.5345V44.8755H88.8302V55.5345H100.012ZM72.8748 31.8961H79.8433V38.2237H81.9501C81.9501 35.9623 81.9501 33.7376 81.9501 31.5204C81.9114 31.2579 81.7932 31.0137 81.6113 30.8206C80.6291 29.5487 79.6469 28.2866 78.6647 27.0343C77.9281 26.0914 77.1915 25.1633 76.3738 24.1615C75.0111 25.8852 73.7956 27.5868 72.396 29.1411C71.7849 29.7287 71.3195 30.451 71.0368 31.2503C70.7542 32.0496 70.6622 32.9038 70.7681 33.745C70.8308 34.7114 70.8308 35.6809 70.7681 36.6473V38.2163H72.8748V31.8961ZM50.3192 42.7098H43.638V53.3688H50.3192V42.7098ZM109.051 53.3688V42.7245H102.421V53.3688H109.051ZM43.6159 66.2672H50.2971V55.6303H43.6159V66.2672ZM50.3118 68.5508H43.6306V79.1803H50.3118V68.5508ZM109.058 79.2025V68.5655H102.384V79.2098L109.058 79.2025ZM109.058 66.2967V55.6303H102.392V66.3041L109.058 66.2967ZM72.8601 51.1589V42.6509H79.836V51.1589H81.9059V40.6178H70.8049V51.1589H72.8601ZM72.8601 64.0868V55.5787H79.8802V64.0794H81.8912V53.5456H70.8417V64.1089L72.8601 64.0868ZM88.8892 59.7628H99.9828V57.7886H88.8744L88.8892 59.7628ZM63.8437 57.8181H52.728V59.7554H63.829L63.8437 57.8181ZM75.3278 57.8181V64.0942H77.383V57.7886L75.3278 57.8181ZM75.3278 44.8755V51.1589H77.3388V44.8608L75.3278 44.8755ZM49.5458 40.4557L46.9749 35.4761L44.3746 40.4336L49.5458 40.4557ZM103.099 40.4557H108.314L105.706 35.4835L103.099 40.4557ZM77.4051 79.1509C77.4051 77.3388 77.4051 75.5782 77.4051 73.8103C77.4062 73.6782 77.3805 73.5473 77.3293 73.4254C77.2781 73.3036 77.2027 73.1935 77.1075 73.1018C77.0124 73.0102 76.8996 72.9388 76.776 72.8922C76.6524 72.8455 76.5205 72.8246 76.3886 72.8306C76.2508 72.8173 76.1117 72.8329 75.9803 72.8764C75.8489 72.9199 75.728 72.9903 75.6253 73.0832C75.5227 73.1762 75.4406 73.2895 75.3843 73.416C75.328 73.5424 75.2987 73.6793 75.2983 73.8177C75.2983 75.5782 75.2983 77.3388 75.2983 79.1509H77.4051ZM75.3278 34.106V38.2311H77.3535V34.106H75.3278Z" fill="white"/>
<path opacity="0.12" d="M45.2144 66.2746V55.6303H51.5862V66.2746H45.2144ZM49.4647 62.039H47.3653V64.1237H49.4647V62.039ZM47.3653 57.7886V59.8659H49.45V57.7886H47.3653Z" fill="white"/>
<path opacity="0.12" d="M51.5936 68.5582V79.1877H45.2365V68.5582H51.5936ZM49.4721 72.757V70.6502H47.3653V72.757H49.4721ZM49.4721 74.9669H47.3506V77.0368H49.4721V74.9669Z" fill="white"/>
<path opacity="0.12" d="M107.548 79.2099H101.198V68.5656H107.548V79.2099ZM105.427 70.6502H103.327V72.7275H105.427V70.6502ZM103.312 74.9448V77.0589H105.412V74.9448H103.312Z" fill="white"/>
<path opacity="0.12" d="M107.548 66.3041H101.206V55.6303H107.548V66.3041ZM103.327 57.7444V59.8365H105.427V57.7444H103.327ZM105.449 62.0537H103.327V64.1163H105.449V62.0537Z" fill="white"/>
<path opacity="0.12" d="M88.322 59.7628V57.7886H98.8926V59.7407L88.322 59.7628Z" fill="white"/>
<path opacity="0.12" d="M64.4699 57.7886V59.726H53.8992V57.7886H64.4699Z" fill="white"/>
<path opacity="0.12" d="M77.4051 79.1509H75.3794C75.3794 77.3388 75.3794 75.5783 75.3794 73.8177C75.3759 73.6827 75.4008 73.5485 75.4524 73.4237C75.5041 73.2989 75.5813 73.1863 75.6792 73.0933C75.7771 73.0003 75.8935 72.9288 76.0207 72.8836C76.148 72.8383 76.2833 72.8203 76.418 72.8307C76.5468 72.8275 76.6749 72.8509 76.7944 72.8992C76.9139 72.9475 77.0222 73.0198 77.1126 73.1116C77.203 73.2034 77.2737 73.3128 77.3202 73.433C77.3667 73.5532 77.3881 73.6816 77.383 73.8104C77.4198 75.6004 77.4051 77.3609 77.4051 79.1509Z" fill="white"/>
<path opacity="0.79" d="M90.4361 64.1826H92.4987V77.0515H90.4361V64.1826Z" fill="white"/>
<path opacity="0.81" d="M96.8153 77.0736H94.7527V61.7001H96.8153V77.0736Z" fill="white"/>
<path opacity="0.79" d="M62.3705 77.0589H60.2858V64.1973H62.3705V77.0589Z" fill="white"/>
<path opacity="0.79" d="M55.947 77.0589V63.5565H58.0243V77.0589H55.947Z" fill="white"/>
<path opacity="0.79" d="M55.947 46.9896H62.3704V53.3688H55.947V46.9896ZM60.2195 49.1995H58.1495V51.159H60.2342L60.2195 49.1995Z" fill="white"/>
<path opacity="0.79" d="M91.2758 53.3689V47.0265H97.714V53.3689H91.2758ZM95.5335 49.1995H93.471V51.1958H95.5335V49.1995Z" fill="white"/>
<path opacity="0.79" d="M47.8662 46.9528H45.7816V44.8608H47.8662V46.9528Z" fill="white"/>
<path opacity="0.79" d="M45.7595 49.1111H47.8515V51.2105H45.7595V49.1111Z" fill="white"/>
<path opacity="0.79" d="M104.786 46.9454V44.8608H106.892V46.9454H104.786Z" fill="white"/>
<path opacity="0.79" d="M106.9 49.1259V51.2179H104.786V49.1259H106.9Z" fill="white"/>
<path opacity="0.12" d="M49.4647 62.039V64.1237H47.3653V62.039H49.4647Z" fill="black"/>
<path opacity="0.12" d="M47.3653 57.7886H49.45V59.8659H47.3653V57.7886Z" fill="black"/>
<path opacity="0.12" d="M49.4721 72.757H47.3653V70.6502H49.4721V72.757Z" fill="black"/>
<path opacity="0.12" d="M49.4868 74.9742V77.0441H47.3653V74.9742H49.4868Z" fill="black"/>
<path opacity="0.12" d="M105.426 70.6502V72.7275H103.327V70.6502H105.426Z" fill="black"/>
<path opacity="0.12" d="M103.312 74.9448H105.412V77.0589H103.312V74.9448Z" fill="black"/>
<path opacity="0.12" d="M103.327 57.7444H105.426V59.8365H103.327V57.7444Z" fill="black"/>
<path opacity="0.12" d="M105.449 62.0537V64.1163H103.327V62.0537H105.449Z" fill="black"/>
<path d="M76.5948 81.3608L53.0742 61.5454V78.591C53.0718 78.8599 53.147 79.1238 53.2907 79.3511C53.4344 79.5784 53.6406 79.7595 53.8845 79.8728C54.7994 80.2695 55.7716 80.5182 56.7647 80.6094V81.346H35.3435V80.6094C36.3294 80.5317 37.2941 80.2824 38.1943 79.8728C38.4418 79.76 38.6518 79.5787 38.7993 79.3502C38.9468 79.1217 39.0258 78.8556 39.0267 78.5837V53.9581C39.0306 53.6898 38.9569 53.4261 38.8144 53.1987C38.672 52.9713 38.4668 52.7899 38.2237 52.6764C37.3111 52.273 36.3377 52.0241 35.3435 51.9398V51.2031H62.5988V51.9398C60.7941 52.2049 59.888 52.6764 59.888 53.472C59.888 54.2675 60.5436 55.0999 61.8475 56.1607L76.6316 69.7441L89.5005 56.3448C91.3421 54.9305 92.2629 53.9262 92.2629 53.332C92.2629 52.5954 91.32 52.1313 89.4416 51.9398V51.2031H115.997V51.9398C115.003 52.0231 114.029 52.2721 113.117 52.6764C112.873 52.7896 112.667 52.9707 112.523 53.198C112.379 53.4253 112.304 53.6892 112.307 53.9581V78.5763C112.306 78.8457 112.382 79.1097 112.526 79.3378C112.669 79.5659 112.874 79.7487 113.117 79.8654C114.028 80.2746 115.002 80.5238 115.997 80.602V81.3386H93.1616V80.602C94.1472 80.5227 95.1117 80.2735 96.0124 79.8654C96.261 79.7541 96.472 79.5732 96.6198 79.3443C96.7675 79.1155 96.8457 78.8487 96.8447 78.5763V61.5233L76.5948 81.3608Z" fill="#CA9E67"/>
<path d="M74.9963 148.888C115.805 148.888 148.888 115.805 148.888 74.9963C148.888 34.1872 115.805 1.10492 74.9963 1.10492C34.1872 1.10492 1.10492 34.1872 1.10492 74.9963C1.10492 115.805 34.1872 148.888 74.9963 148.888Z" stroke="#F6F6F6" stroke-width="3" stroke-miterlimit="10"/>
<path d="M74.9963 144.453C113.165 144.453 144.107 113.511 144.107 75.3425C144.107 37.1738 113.165 6.23187 74.9963 6.23187C36.8276 6.23187 5.88568 37.1738 5.88568 75.3425C5.88568 113.511 36.8276 144.453 74.9963 144.453Z" stroke="white" stroke-width="0.75" stroke-miterlimit="10"/>
</g>
<defs>
<clipPath id="clip0_22_296">
<rect width="150" height="150" fill="white"/>
</clipPath>
</defs>
</svg>
